<?xml version="1.0" encoding="UTF-8"?>
<svg version="1.1" xmlns="http://www.w3.org/2000/svg" width="1600" height="480">
<path d="M0 0 C4.32608981 4.05210413 8.01789149 7.98458539 9 14 C8.97166827 19.30747724 8.41093193 23.76573967 5 28 C-0.59016862 33.26133517 -4.22049465 34.48407693 -11.83984375 34.40234375 C-16.98445065 33.74734436 -20.10248986 31.2652937 -24 28 C-47.82638437 8.20577298 -73.10190343 0.96271116 -104 3 C-110.18211793 3.70092793 -116.07630733 5.12575676 -122 7 C-122.68594238 7.21430664 -123.37188477 7.42861328 -124.07861328 7.64941406 C-152.59018581 16.83892864 -175.48658484 36.6621895 -189.28173828 63.17529297 C-202.68575025 90.33954651 -204.3543398 121.26897949 -194.890625 149.93359375 C-184.94601853 177.80748802 -164.58508197 200.39514837 -138.02587891 213.30224609 C-110.42172848 226.16650923 -79.78775647 227.57083546 -51.02246094 217.29345703 C-35.16098526 211.27663443 -21.94346328 201.94346328 -10 190 C-9.18789063 189.18789063 -8.37578125 188.37578125 -7.5390625 187.5390625 C-1.6202628 181.2970519 2.6440638 174.38294272 7 167 C14.53816021 154.76826833 14.53816021 154.76826833 22.3125 152.625 C28.06445474 151.58698168 32.35522833 152.1744054 37.20703125 155.5234375 C41.80608417 159.31869198 44.42564522 162.12310523 45.3125 168.109375 C46.32912112 181.41016802 35.78974946 193.94147095 27.60205078 203.65917969 C24.50277239 207.20580978 21.26737455 210.60848508 18 214 C17.35804688 214.70511719 16.71609375 215.41023437 16.0546875 216.13671875 C-9.36105124 243.25784256 -48.59255908 256.37677168 -84.89990234 257.92553711 C-123.74871169 258.95048744 -161.11639938 245.12925068 -189.45141602 218.45727539 C-216.63067906 192.30616838 -233.53914347 157.22986811 -234.31581116 119.30180359 C-234.51300536 105.98940573 -234.37542392 92.95727247 -231 80 C-230.75056641 78.98873047 -230.75056641 78.98873047 -230.49609375 77.95703125 C-224.89390929 55.50679574 -214.23495834 35.3916312 -199 18 C-198.32066406 17.19949219 -197.64132813 16.39898437 -196.94140625 15.57421875 C-176.74546775 -7.84992044 -148.0070173 -22.77979537 -118 -29 C-116.96875 -29.22558594 -115.9375 -29.45117188 -114.875 -29.68359375 C-74.79212489 -36.94861486 -31.45664783 -25.79106878 0 0 Z " fill="#1E5631" transform="translate(306,90)"/>
<path d="M0 0 C13.19511621 11.17132538 13.19511621 11.17132538 13.8203125 16.4765625 C14.07139568 23.41032104 13.2165431 27.90442169 8.546875 33.15625 C3.7839714 37.4760928 -1.16965024 38.41556801 -7.453125 38.15625 C-13.15475357 36.3803329 -17.83317786 34.01044258 -20.84765625 28.69921875 C-21.33621094 27.75691406 -21.82476562 26.81460938 -22.328125 25.84375 C-27.04580782 16.85141549 -32.96614219 11.84732691 -42.453125 8.15625 C-52.92246253 5.57183806 -62.37988619 7.1301331 -71.7109375 12.44140625 C-79.48776496 17.74916492 -84.63628438 25.93578385 -86.453125 35.15625 C-87.44451488 44.53314596 -86.04733789 53.07031465 -80.265625 60.65625 C-79.73582031 61.2853125 -79.20601562 61.914375 -78.66015625 62.5625 C-77.453125 64.15625 -77.453125 64.15625 -77.453125 66.15625 C-76.87433594 66.4346875 -76.29554688 66.713125 -75.69921875 67 C-73.453125 68.15625 -73.453125 68.15625 -71.55078125 69.375 C-63.87656309 74.20636959 -55.20555436 76.04981945 -46.203125 74.59375 C-38.64068305 72.63899925 -33.24694065 69.17189062 -27.890625 63.53125 C-23.4002256 58.86185721 -19.73044705 56.30953287 -13.1640625 56.07421875 C-6.79285002 56.4684242 -3.05750645 58.98593213 1.796875 63.03125 C5.11465003 67.05997682 5.76058158 70.86353725 5.546875 75.96875 C4.17265485 86.28312145 -3.65641774 93.00034233 -11.453125 99.15625 C-24.93964952 109.23685562 -42.17438449 112.43968194 -58.640625 110.46875 C-76.20954439 107.50791649 -91.58677621 98.77779837 -102.265625 84.34375 C-112.75171278 68.31213502 -116.16056427 50.75231826 -112.80078125 31.87890625 C-109.63065549 18.69499269 -102.93463459 8.67091172 -93.453125 -0.84375 C-92.83953125 -1.48054688 -92.2259375 -2.11734375 -91.59375 -2.7734375 C-65.7345075 -27.63809375 -25.94825084 -19.81502792 0 0 Z " fill="#4C9A2A" transform="translate(265.453125,156.84375)"/>
<path d="M0 0 C4.29 0 8.58 0 13 0 C16.72111789 8.68108511 19.97918536 17.43342669 23.01171875 26.375 C23.4701776 27.71604839 23.92907412 29.05694723 24.38838196 30.39770508 C25.58274805 33.88671406 26.77287748 37.37714997 27.96154785 40.86810303 C29.87310585 46.48175776 31.78846018 52.09410236 33.70911598 57.70465088 C34.37515898 59.65367299 35.03764046 61.60388033 35.69987488 63.55419922 C36.30609428 65.32754639 36.30609428 65.32754639 36.92456055 67.13671875 C37.27810104 68.17530029 37.63164154 69.21388184 37.99589539 70.28393555 C38.86265726 72.62849316 39.82622732 74.79680182 41 77 C41.43530029 75.67838867 41.43530029 75.67838867 41.87939453 74.33007812 C47.99908671 55.77183862 54.2441681 37.26105896 60.6875 18.8125 C60.99681458 17.92385254 61.30612915 17.03520508 61.62481689 16.11962891 C62.50051562 13.60593802 63.38033111 11.09373222 64.26171875 8.58203125 C64.52473282 7.8264241 64.78774689 7.07081696 65.05873108 6.29231262 C66.88477963 1.11522037 66.88477963 1.11522037 68 0 C70.18639453 -0.07258946 72.37500389 -0.08373783 74.5625 -0.0625 C76.35880859 -0.04896484 76.35880859 -0.04896484 78.19140625 -0.03515625 C79.11824219 -0.02355469 80.04507813 -0.01195312 81 0 C79.56447173 7.28441616 77.34834417 14.06693849 74.81640625 21.0390625 C74.40453064 22.18703812 73.99265503 23.33501373 73.56829834 24.51777649 C72.46489213 27.59041634 71.35685426 30.66133303 70.24655533 33.73148727 C69.10290446 36.89719241 67.96502478 40.06496931 66.8269043 43.23266602 C65.47282279 47.00069956 64.11817872 50.76852485 62.76142883 54.53559875 C60.24158258 61.53326667 57.73731811 68.53595881 55.265625 75.55078125 C55.00253036 76.29692688 54.73943573 77.04307251 54.46836853 77.81182861 C53.52179325 80.49817819 52.57595445 83.18476961 51.63504028 85.87310791 C51.02596974 87.61284406 50.41349883 89.35138871 49.80078125 91.08984375 C49.47247314 92.02691162 49.14416504 92.96397949 48.8059082 93.92944336 C48 96 48 96 47 97 C42.66684941 97.1438629 38.33487639 97.04208618 34 97 C26.98086828 78.60667558 20.37143038 60.08115817 13.83666992 41.51196289 C11.77368708 35.65090568 9.70706617 29.79113166 7.63949394 23.93169212 C6.926116 21.90854331 6.21419128 19.88488769 5.50245667 17.86116028 C4.85554115 16.02590034 4.85554115 16.02590034 4.19555664 14.15356445 C3.81855118 13.08233841 3.44154572 12.01111237 3.05311584 10.90742493 C2.37002195 9.02155052 1.64206581 7.15110394 0.86277771 5.30290222 C0 3 0 3 0 0 Z " fill="#1565BF" transform="translate(824,137)"/>
<path d="M0 0 C5.97131619 3.52850502 9.64940901 9.98023155 11.82421875 16.453125 C13.33920374 23.11476115 13 28.99698161 13 36 C-3.17 36 -19.34 36 -36 36 C-34.13216807 47.61427156 -34.13216807 47.61427156 -27.4921875 56.37890625 C-20.27033669 61.02615105 -8.94575179 60.06197124 -0.81640625 58.31640625 C0.81123577 57.81094238 2.42757885 57.26485481 4.01953125 56.65625 C6 56 6 56 10 56 C10 59.63 10 63.26 10 67 C-3.07094973 71.48704245 -18.54529873 74.1141195 -31.703125 68.33203125 C-40.43939693 63.26558783 -45.76024903 56.41791431 -48.3984375 46.69140625 C-51.09641315 34.62059311 -50.69687857 20.76061913 -44 10 C-33.39603279 -4.42242742 -16.06684934 -8.93992006 0 0 Z M-29.76171875 10.55078125 C-34.08447624 15.2712743 -36 19.51294457 -36 26 C-24.12 26 -12.24 26 0 26 C-1.79285431 15.54487496 -1.79285431 15.54487496 -8.1875 8.1875 C-15.66390433 5.03079595 -23.45561163 4.99972909 -29.76171875 10.55078125 Z " fill="#1565BF" transform="translate(805,164)"/>
<path d="M0 0 C-0.57634139 4.75481646 -2.55068521 7.97048212 -5 12 C-5.72703125 11.72285156 -6.4540625 11.44570312 -7.203125 11.16015625 C-18.73667074 7.00512246 -30.09222228 5.08797892 -41.6328125 10.15625 C-49.61572281 14.44557494 -53.91048484 20.23742219 -56.8125 28.75 C-60.20269124 41.82645193 -60.27468881 56.78158589 -53.546875 68.8125 C-48.80482103 75.5184349 -42.59967158 79.69218197 -34.625 81.5546875 C-24.21449322 83.32075561 -14.15990958 81.16607209 -4 79 C-4 82.96 -4 86.92 -4 91 C-12.02560153 93.63855393 -19.21434133 94.32641858 -27.625 94.375 C-28.58994385 94.38853516 -29.5548877 94.40207031 -30.54907227 94.41601562 C-42.09318699 94.3451868 -52.94338914 91.04616843 -61.265625 82.73828125 C-70.37555767 71.99193475 -73.40171749 59.59400525 -73.3125 45.75 C-73.30686035 44.82977051 -73.3012207 43.90954102 -73.29541016 42.96142578 C-73.05141136 29.19844415 -69.82969789 17.06604571 -60.375 6.6875 C-44.0996421 -8.46756557 -19.46005067 -8.0355685 0 0 Z " fill="#1565BF" transform="translate(609,141)"/>
<path d="M0 0 C4.09153278 4.09153278 5.98789092 8.06604612 6.24525452 13.80792236 C6.24303391 14.82940369 6.24081329 15.85088501 6.23852539 16.90332031 C6.23844986 18.0642218 6.23837433 19.22512329 6.23829651 20.42120361 C6.23313522 21.66923767 6.22797394 22.91727173 6.22265625 24.203125 C6.2212413 25.48483582 6.21982635 26.76654663 6.21836853 28.08709717 C6.21455901 31.4868364 6.20474214 34.8865326 6.19366455 38.28625488 C6.18341674 41.758539 6.1788637 45.2308301 6.17382812 48.703125 C6.16311841 55.51043429 6.14606084 62.31771508 6.125 69.125 C3.155 69.125 0.185 69.125 -2.875 69.125 C-3.865 66.485 -4.855 63.845 -5.875 61.125 C-6.865 62.053125 -7.855 62.98125 -8.875 63.9375 C-17.30107339 70.99537929 -26.37342057 71.04003124 -36.875 70.125 C-42.54629132 68.94838354 -45.89883624 66.61040499 -49.375 62 C-52.99889695 55.86957433 -53.6321556 49.72462739 -52.125 42.8125 C-49.85260958 36.10894827 -47.09323849 32.91789047 -40.99609375 29.484375 C-29.92167062 24.66097168 -17.73528366 24.69916535 -5.875 25.125 C-6.61014928 16.6120669 -6.61014928 16.6120669 -9.875 8.875 C-16.19391891 5.18896397 -22.18702887 5.75687345 -29.125 7.4375 C-33.08047542 8.54870315 -37.00951029 9.72912872 -40.875 11.125 C-42.195 7.825 -43.515 4.525 -44.875 1.125 C-30.89823581 -5.530602 -13.80108735 -9.00070914 0 0 Z M-36.875 40.125 C-39.26098167 43.70397251 -39.66079503 45.84090055 -39.875 50.125 C-38.68566305 54.32265982 -37.77893834 56.45780742 -34.25 59.0625 C-27.91451676 61.05700398 -21.87769869 60.82723438 -15.73046875 58.23828125 C-10.74391024 55.24634615 -7.62358249 50.58932029 -5.875 45.125 C-5.63528911 42.22848171 -5.63528911 42.22848171 -5.75 39.3125 C-5.76804687 38.33667969 -5.78609375 37.36085937 -5.8046875 36.35546875 C-5.82789063 35.61941406 -5.85109375 34.88335937 -5.875 34.125 C-22.23067312 33.69981014 -22.23067312 33.69981014 -36.875 40.125 Z " fill="#1565BF" transform="translate(961.875,164.875)"/>
<path d="M0 0 C8.01446872 5.30632063 12.41664906 12.50613535 14.60742188 21.79418945 C15.29376956 25.65062683 15.34006408 29.46641341 15.3125 33.375 C15.30686035 34.21208496 15.3012207 35.04916992 15.29541016 35.91162109 C15.06427481 47.67663897 11.53894505 56.33516984 3.25 64.8125 C-6.07935025 71.09187036 -15.01474055 72.07440661 -26 71 C-34.38137277 69.19384461 -40.88153237 65.64882675 -45.6875 58.484375 C-52.39251243 46.94401707 -53.77875884 34.41933659 -51.3125 21.359375 C-48.88203161 12.6501966 -44.8681724 4.89575171 -37 0 C-25.3668528 -5.86750682 -11.56758548 -6.27583289 0 0 Z M-34.25 13.125 C-39.93284346 22.46109997 -40.22386934 33.33041883 -38.53125 43.9375 C-37.06875569 49.64819209 -34.68425353 54.30782636 -30 58 C-23.91678875 61.36790814 -17.68176835 61.67328782 -11 60 C-5.30969395 57.04947094 -1.6964337 53.15557716 0.75 47.25 C3.67880224 37.57362575 3.30959854 25.55167408 -0.65625 16.24609375 C-3.40742435 11.64747384 -6.9382451 8.68725163 -12 7 C-21.38031017 6.22675822 -27.27711546 6.53949794 -34.25 13.125 Z " fill="#1565BF" transform="translate(672,164)"/>
<path d="M0 0 C4.29 0 8.58 0 13 0 C13.01458252 1.53857666 13.02916504 3.07715332 13.04418945 4.66235352 C13.10228368 10.3858939 13.17951679 16.10904548 13.26245117 21.83227539 C13.29564804 24.30649492 13.32369618 26.78078922 13.34643555 29.25512695 C13.38007701 32.81754334 13.43239987 36.37927772 13.48828125 39.94140625 C13.49467117 41.04271378 13.5010611 42.1440213 13.50764465 43.27870178 C13.63518172 49.98314123 13.84879022 55.95044215 18.9375 60.875 C24.56754073 63.94593131 30.55937254 63.59073489 36.625 61.875 C41.32539056 60.16139935 43.3209101 58.22159621 46 54 C48.18889313 48.01130855 48.340278 42.37126378 48.4140625 36.03515625 C48.43342865 35.00184677 48.4527948 33.96853729 48.4727478 32.90391541 C48.53223299 29.62352595 48.57880452 26.34310082 48.625 23.0625 C48.66320836 20.83006334 48.70226174 18.59764098 48.7421875 16.36523438 C48.83790899 10.91027317 48.92205438 5.45524299 49 0 C53.29 0 57.58 0 62 0 C62 24.09 62 48.18 62 73 C58.37 73 54.74 73 51 73 C50.34 70.69 49.68 68.38 49 66 C48.49210937 66.40992188 47.98421875 66.81984375 47.4609375 67.2421875 C46.77257813 67.78101563 46.08421875 68.31984375 45.375 68.875 C44.70210937 69.40867187 44.02921875 69.94234375 43.3359375 70.4921875 C38.21606517 73.79698803 33.16563258 74.36157688 27.1875 74.3125 C26.13018677 74.30512817 26.13018677 74.30512817 25.05151367 74.29760742 C17.92661723 74.13774609 12.64972568 73.18890382 7.125 68.625 C-0.03276706 59.78305246 -0.29990608 50.80051279 -0.1953125 39.74609375 C-0.1924826 38.60463394 -0.18965271 37.46317413 -0.18673706 36.28712463 C-0.17561476 32.67047277 -0.15052481 29.05407599 -0.125 25.4375 C-0.11495993 22.97331089 -0.10583588 20.50911786 -0.09765625 18.04492188 C-0.07570146 12.02985085 -0.04122665 6.01496855 0 0 Z " fill="#1565BF" transform="translate(989,161)"/>
<path d="M0 0 C6.06126786 4.21604794 9.20677969 9.92261571 11 17 C12.28816743 25.53908928 9.7758978 32.74362338 5.125 39.875 C-0.7411747 45.7411747 -6.63920335 48.06422826 -14.8125 48.375 C-22.58892356 48.23992565 -29.50935891 45.6431589 -35 40 C-39.92677045 32.42788973 -41.90906447 26.05168477 -41 17 C-39.25568661 9.92817525 -36.0373518 4.1994126 -30 0 C-19.35406936 -5.35474422 -10.64593064 -5.35474422 0 0 Z " fill="#76BA1B" transform="translate(231,181)"/>
<path d="M0 0 C2.64 0 5.28 0 8 0 C8 5.28 8 10.56 8 16 C14.93 16 21.86 16 29 16 C29 19.3 29 22.6 29 26 C22.07 26 15.14 26 8 26 C8.07414612 32.13878736 8.15711031 38.27615699 8.26245117 44.41430664 C8.29561661 46.50049387 8.32367443 48.58676902 8.34643555 50.6730957 C8.38013569 53.67957879 8.43245968 56.68526225 8.48828125 59.69140625 C8.49467117 60.61772354 8.5010611 61.54404083 8.50764465 62.49842834 C8.6328603 68.06764167 9.36328196 72.06408018 12 77 C15.38055092 79.87972856 19.776947 79.28315489 24 79 C26.00720923 78.71325582 28.01178687 78.39764263 30 78 C30 81.3 30 84.6 30 88 C23.29871813 91.20328961 14.51940369 91.24789505 7.3828125 89.27734375 C2.37736626 86.94461692 -0.74318598 83.70210959 -3.08737183 78.66218567 C-4.04541671 75.86751699 -4.24195206 73.78553152 -4.22705078 70.8425293 C-4.22689972 69.84186935 -4.22674866 68.84120941 -4.22659302 67.81022644 C-4.21627045 66.7423439 -4.20594788 65.67446136 -4.1953125 64.57421875 C-4.1924826 63.47149124 -4.18965271 62.36876373 -4.18673706 61.23262024 C-4.17555981 57.71746886 -4.15045937 54.20257411 -4.125 50.6875 C-4.11496704 48.30143598 -4.10584174 45.91536795 -4.09765625 43.52929688 C-4.07562845 37.68609934 -4.04111513 31.84309315 -4 26 C-7.63 26 -11.26 26 -15 26 C-15 24.02 -15 22.04 -15 20 C-14.33613281 19.81308594 -13.67226562 19.62617188 -12.98828125 19.43359375 C-7.67874728 17.46245059 -7.67874728 17.46245059 -4.03564453 13.29101562 C-2.2528604 8.98663591 -1.08128207 4.52431182 0 0 Z " fill="#1565BF" transform="translate(1113,145)"/>
<path d="M0 0 C4.29 0 8.58 0 13 0 C13 33.99 13 67.98 13 103 C8.71 103 4.42 103 0 103 C0 69.01 0 35.02 0 0 Z " fill="#1565BF" transform="translate(1073,131)"/>
<path d="M0 0 C0.495 0.495 0.495 0.495 1 1 C0.91015699 2.85772162 0.75388139 4.71247985 0.5625 6.5625 C0.46066406 7.57441406 0.35882812 8.58632812 0.25390625 9.62890625 C0.17011719 10.41136719 0.08632813 11.19382813 0 12 C-1.27875 11.938125 -2.5575 11.87625 -3.875 11.8125 C-10.17166908 11.86200212 -16.15483496 12.62202995 -21.1171875 16.76953125 C-27.52258675 23.71978811 -28.30320931 30.28067518 -28.4140625 39.4296875 C-28.43342865 40.42001984 -28.4527948 41.41035217 -28.4727478 42.43069458 C-28.53229553 45.5787101 -28.5788297 48.72676268 -28.625 51.875 C-28.6632026 54.01564052 -28.70225565 56.15626604 -28.7421875 58.296875 C-28.83797673 63.5311275 -28.92209928 68.76545194 -29 74 C-33.29 74 -37.58 74 -42 74 C-42 49.91 -42 25.82 -42 1 C-38.37 1 -34.74 1 -31 1 C-30.34 4.63 -29.68 8.26 -29 12 C-28.030625 10.7625 -27.06125 9.525 -26.0625 8.25 C-18.74114761 0.00799851 -10.72292031 -0.97336033 0 0 Z " fill="#1565BF" transform="translate(747,160)"/>
<path d="M0 0 C4.16853137 2.74744113 5.36630536 5.27772143 6.5625 10.0625 C6.79000155 14.61253091 6.4450069 18.55852636 4.75 22.8125 C1.17886833 26.38363167 -1.56913661 27.96179351 -6.5625 28.0625 C-10.61581623 28.00394487 -13.07862393 27.51749724 -16.25 24.8125 C-19.3588789 20.92640137 -20.39930944 16.73971152 -20.25 11.8125 C-19.40881579 7.52315572 -18.37717825 3.93967825 -15.25 0.8125 C-10.06940789 -1.77779606 -5.4414392 -1.98821817 0 0 Z M-13.25 4.8125 C-15.79130715 9.05107004 -15.82596532 12.98986498 -15.25 17.8125 C-13.5380813 21.57648568 -13.5380813 21.57648568 -10.25 23.8125 C-5.36038194 24.18653391 -5.36038194 24.18653391 -0.875 22.5 C1.74263111 19.78169077 1.92599624 17.05135047 2 13.4375 C1.92157337 9.42467094 1.7048893 6.7673893 -1.25 3.8125 C-5.38993826 2.48525865 -9.69889735 1.94430171 -13.25 4.8125 Z " fill="#757575" transform="translate(599.25,299.1875)"/>
<path d="M0 0 C15.26785714 -0.66964286 15.26785714 -0.66964286 18.8125 2.125 C22.24088864 6.63088221 23.23919503 9.96908471 22.8125 15.5625 C22.248136 19.33549527 21.58247661 22.07319317 19 25 C12.36990317 29.09091081 8.61346469 28 0 28 C0 18.76 0 9.52 0 0 Z M4 3 C4 9.93 4 16.86 4 24 C10.89106551 24.21544885 10.89106551 24.21544885 16 21 C18.70354299 16.94468551 18.63424923 13.75686925 18 9 C16.83333333 5.83333333 16.83333333 5.83333333 14 4 C10.7 3.67 7.4 3.34 4 3 Z " fill="#757575" transform="translate(1345,299)"/>
<path d="M0 0 C14 0 14 0 19 3 C22.6245923 6.99955012 22.4412914 11.2581453 22.2890625 16.40625 C21.80736747 20.72848649 20.21356469 22.90387705 17.0625 25.75 C11.55498611 29.0878872 6.64849684 28 0 28 C0 18.76 0 9.52 0 0 Z M4 3 C4 9.93 4 16.86 4 24 C10.89661861 24.24689052 10.89661861 24.24689052 16 21 C18.37325637 17.20926969 18.16056049 14.42911976 17.5234375 10.125 C17.07144602 7.84096331 17.07144602 7.84096331 15.5 5.5 C12.1887859 3.27716721 12.1887859 3.27716721 4 3 Z " fill="#757575" transform="translate(1269,299)"/>
<path d="M0 0 C1.65 0 3.3 0 5 0 C5 3.63 5 7.26 5 11 C9.29 11 13.58 11 18 11 C18 7.37 18 3.74 18 0 C19.32 0 20.64 0 22 0 C22 9.24 22 18.48 22 28 C20.68 28 19.36 28 18 28 C18 23.71 18 19.42 18 15 C13.71 15 9.42 15 5 15 C5 19.29 5 23.58 5 28 C3.35 28 1.7 28 0 28 C0 18.76 0 9.52 0 0 Z " fill="#757575" transform="translate(867,299)"/>
<path d="M0 0 C4.62 0 9.24 0 14 0 C18 4 18 4 18.53125 6 C18.5209375 6.66 18.510625 7.32 18.5 8 C18.5103125 8.66 18.520625 9.32 18.53125 10 C17.78598944 12.80568681 16.13074514 14.10600432 14 16 C14.433125 16.69867188 14.86625 17.39734375 15.3125 18.1171875 C15.869375 19.02726562 16.42625 19.93734375 17 20.875 C17.556875 21.77992188 18.11375 22.68484375 18.6875 23.6171875 C20 26 20 26 20 28 C18.35 28 16.7 28 15 28 C14.62488281 27.21753906 14.24976563 26.43507813 13.86328125 25.62890625 C13.35152344 24.61699219 12.83976563 23.60507812 12.3125 22.5625 C11.56419922 21.04849609 11.56419922 21.04849609 10.80078125 19.50390625 C9.00785816 16.41087373 9.00785816 16.41087373 4 16 C4 19.96 4 23.92 4 28 C2.68 28 1.36 28 0 28 C0 18.76 0 9.52 0 0 Z M4 3 C4 6.3 4 9.6 4 13 C8.42664564 13.30495485 8.42664564 13.30495485 12.375 11.5 C12.91125 11.005 13.4475 10.51 14 10 C13.81171228 7.55519921 13.81171228 7.55519921 13 5 C9.83448842 2.62586631 8.20266549 3 4 3 Z " fill="#757575" transform="translate(630,299)"/>
<path d="M0 0 C4.62 0 9.24 0 14 0 C18 4 18 4 18.5 7.4375 C17.93237649 11.4818175 16.80548184 13.10684686 14 16 C14.433125 16.69867188 14.86625 17.39734375 15.3125 18.1171875 C15.869375 19.02726562 16.42625 19.93734375 17 20.875 C17.556875 21.77992188 18.11375 22.68484375 18.6875 23.6171875 C20 26 20 26 20 28 C17.70703125 28.3046875 17.70703125 28.3046875 15 28 C13.19921875 25.8828125 13.19921875 25.8828125 11.6875 23.125 C11.17574219 22.22007812 10.66398437 21.31515625 10.13671875 20.3828125 C9 18 9 18 9 16 C7.35 16 5.7 16 4 16 C4 19.96 4 23.92 4 28 C2.68 28 1.36 28 0 28 C0 18.76 0 9.52 0 0 Z M4 3 C4 6.3 4 9.6 4 13 C8.42664564 13.30495485 8.42664564 13.30495485 12.375 11.5 C12.91125 11.005 13.4475 10.51 14 10 C13.81171228 7.55519921 13.81171228 7.55519921 13 5 C9.83448842 2.62586631 8.20266549 3 4 3 Z " fill="#757575" transform="translate(1185,299)"/>
<path d="M0 0 C1.65 0 3.3 0 5 0 C5.33 7.59 5.66 15.18 6 23 C8.97 23 11.94 23 15 23 C17.48057628 20.51942372 17.29019005 19.63807536 17.4140625 16.2109375 C17.45273438 15.26992188 17.49140625 14.32890625 17.53125 13.359375 C17.5621875 12.37453125 17.593125 11.3896875 17.625 10.375 C17.66367188 9.38242187 17.70234375 8.38984375 17.7421875 7.3671875 C17.8366314 4.91164615 17.92219875 2.4561159 18 0 C19.32 0 20.64 0 22 0 C22.11654436 3.5622231 22.1873639 7.12395342 22.25 10.6875 C22.30027344 12.19860352 22.30027344 12.19860352 22.3515625 13.74023438 C22.45070627 21.2503749 22.45070627 21.2503749 20.109375 25.14453125 C16.51305158 28.30796388 13.89848061 28.28199168 9.2578125 28.21484375 C6.12530501 27.91676778 4.35865938 27.07276127 2 25 C-0.74399533 20.18127649 -0.22366553 15.0571818 -0.125 9.6875 C-0.11597656 8.75615234 -0.10695313 7.82480469 -0.09765625 6.86523438 C-0.07418263 4.5765564 -0.04134729 2.28841328 0 0 Z " fill="#757575" transform="translate(1137,299)"/>
<path d="M0 0 C1.65 0 3.3 0 5 0 C6.6750644 4.10078931 8.33860345 8.20615636 10 12.3125 C10.47695312 13.47974609 10.95390625 14.64699219 11.4453125 15.84960938 C11.89648438 16.96787109 12.34765625 18.08613281 12.8125 19.23828125 C13.23144531 20.26993408 13.65039062 21.30158691 14.08203125 22.36450195 C15 25 15 25 15 28 C13.35 27.67 11.7 27.34 10 27 C9.34 24.36 8.68 21.72 8 19 C4.37 19 0.74 19 -3 19 C-3.12375 19.928125 -3.2475 20.85625 -3.375 21.8125 C-4 25 -4 25 -6 28 C-7.32 28 -8.64 28 -10 28 C-7.46277869 18.38272302 -3.66846291 9.22643548 0 0 Z M2 6 C1.01 8.97 0.02 11.94 -1 15 C1.31 15 3.62 15 6 15 C5.01 12.03 4.02 9.06 3 6 C2.67 6 2.34 6 2 6 Z " fill="#757575" transform="translate(1439,299)"/>
<path d="M0 0 C5.28 0 10.56 0 16 0 C16 0.99 16 1.98 16 3 C12.37 3 8.74 3 5 3 C5 5.64 5 8.28 5 11 C8.63 11 12.26 11 16 11 C16 12.32 16 13.64 16 15 C12.37 15 8.74 15 5 15 C5 17.97 5 20.94 5 24 C8.63 24 12.26 24 16 24 C16 25.32 16 26.64 16 28 C10.72 28 5.44 28 0 28 C0 18.76 0 9.52 0 0 Z " fill="#757575" transform="translate(783,299)"/>
<path d="M0 0 C5.28 0 10.56 0 16 0 C16 0.99 16 1.98 16 3 C12.04 3 8.08 3 4 3 C4 5.64 4 8.28 4 11 C7.96 11 11.92 11 16 11 C16 12.32 16 13.64 16 15 C12.04 15 8.08 15 4 15 C4 17.97 4 20.94 4 24 C7.96 24 11.92 24 16 24 C16 25.32 16 26.64 16 28 C10.72 28 5.44 28 0 28 C0 18.76 0 9.52 0 0 Z " fill="#757575" transform="translate(1392,299)"/>
<path d="M0 0 C0 1.32 0 2.64 0 4 C-3.3 4 -6.6 4 -10 4 C-10.33 5.65 -10.66 7.3 -11 9 C-9.82630859 9.61488281 -9.82630859 9.61488281 -8.62890625 10.2421875 C-7.11103516 11.05042969 -7.11103516 11.05042969 -5.5625 11.875 C-4.55316406 12.40867187 -3.54382812 12.94234375 -2.50390625 13.4921875 C0 15 0 15 1 17 C1.51417818 20.85633638 1.28255318 22.5518122 -0.8125 25.875 C-5.40189912 28.93459941 -9.62502477 28.60587482 -15 28 C-15.66 27.67 -16.32 27.34 -17 27 C-17 25.68 -17 24.36 -17 23 C-13.04 23 -9.08 23 -5 23 C-4.67 21.68 -4.34 20.36 -4 19 C-4.70125 18.5875 -5.4025 18.175 -6.125 17.75 C-7.07375 17.1725 -8.0225 16.595 -9 16 C-10.051875 15.401875 -11.10375 14.80375 -12.1875 14.1875 C-15.5122323 11.6015971 -16.32589658 10.12888344 -17 6 C-16.3402114 2.77436685 -15.71760352 1.49335242 -13 -0.375 C-8.57469905 -1.2969377 -4.44189387 -0.63825271 0 0 Z " fill="#757575" transform="translate(1531,299)"/>
<path d="M0 0 C5.28 0 10.56 0 16 0 C16 0.99 16 1.98 16 3 C12.04 3 8.08 3 4 3 C4 5.64 4 8.28 4 11 C7.63 11 11.26 11 15 11 C15 12.32 15 13.64 15 15 C11.37 15 7.74 15 4 15 C4 17.97 4 20.94 4 24 C7.96 24 11.92 24 16 24 C16 25.32 16 26.64 16 28 C10.72 28 5.44 28 0 28 C0 18.76 0 9.52 0 0 Z " fill="#757575" transform="translate(1228,299)"/>
<path d="M0 0 C5.28 0 10.56 0 16 0 C16 0.99 16 1.98 16 3 C12.04 3 8.08 3 4 3 C4 5.64 4 8.28 4 11 C7.63 11 11.26 11 15 11 C15 12.32 15 13.64 15 15 C11.37 15 7.74 15 4 15 C4 17.97 4 20.94 4 24 C7.96 24 11.92 24 16 24 C16 25.32 16 26.64 16 28 C10.72 28 5.44 28 0 28 C0 18.76 0 9.52 0 0 Z " fill="#757575" transform="translate(1054,299)"/>
<path d="M0 0 C5.28 0 10.56 0 16 0 C16 0.99 16 1.98 16 3 C12.04 3 8.08 3 4 3 C4 5.64 4 8.28 4 11 C7.63 11 11.26 11 15 11 C15 12.32 15 13.64 15 15 C11.37 15 7.74 15 4 15 C4 17.97 4 20.94 4 24 C7.96 24 11.92 24 16 24 C16 25.32 16 26.64 16 28 C10.72 28 5.44 28 0 28 C0 18.76 0 9.52 0 0 Z " fill="#757575" transform="translate(673,299)"/>
<path d="M0 0 C0.80824219 0.10183594 1.61648438 0.20367187 2.44921875 0.30859375 C3.06410156 0.39238281 3.67898438 0.47617187 4.3125 0.5625 C4.3125 1.8825 4.3125 3.2025 4.3125 4.5625 C3.37277344 4.54509766 3.37277344 4.54509766 2.4140625 4.52734375 C1.18816406 4.51380859 1.18816406 4.51380859 -0.0625 4.5 C-1.28066406 4.48259766 -1.28066406 4.48259766 -2.5234375 4.46484375 C-4.73687142 4.41783666 -4.73687142 4.41783666 -6.6875 5.5625 C-6.51890428 7.49377193 -6.51890428 7.49377193 -5.6875 9.5625 C-3.71588518 10.98728057 -3.71588518 10.98728057 -1.3125 12.0625 C2.18899275 13.75051605 4.30908798 15.17361149 6.3125 18.5625 C6.1795506 21.81976031 5.91778959 23.79930878 3.875 26.375 C0.9375504 28.6074617 -1.05374234 28.69806325 -4.6875 28.6875 C-5.574375 28.69007813 -6.46125 28.69265625 -7.375 28.6953125 C-9.6875 28.5625 -9.6875 28.5625 -11.6875 27.5625 C-11.6875 26.2425 -11.6875 24.9225 -11.6875 23.5625 C-8.0575 23.5625 -4.4275 23.5625 -0.6875 23.5625 C-0.3575 21.9125 -0.0275 20.2625 0.3125 18.5625 C-0.46996094 18.15257812 -1.25242187 17.74265625 -2.05859375 17.3203125 C-3.07050781 16.78148437 -4.08242188 16.24265625 -5.125 15.6875 C-6.13433594 15.15382813 -7.14367187 14.62015625 -8.18359375 14.0703125 C-10.6875 12.5625 -10.6875 12.5625 -11.6875 10.5625 C-12 7.125 -12 7.125 -11.6875 3.5625 C-8.21506944 -0.02966955 -4.80567805 -0.62682757 0 0 Z " fill="#757575" transform="translate(1023.6875,298.4375)"/>
<path d="M0 0 C0.7734375 0.495 0.7734375 0.495 1.5625 1 C1.2325 1.99 0.9025 2.98 0.5625 4 C-0.04078125 3.97679687 -0.6440625 3.95359375 -1.265625 3.9296875 C-2.06484375 3.91164063 -2.8640625 3.89359375 -3.6875 3.875 C-4.87085938 3.84019531 -4.87085938 3.84019531 -6.078125 3.8046875 C-8.70144561 4.0218498 -10.23692097 4.56986439 -12.4375 6 C-14.68329559 10.59853382 -14.6244778 14.06947681 -13.4375 19 C-12.33336285 21.27430965 -12.33336285 21.27430965 -10.4375 23 C-7.6988775 23.48340432 -7.6988775 23.48340432 -4.75 23.25 C-3.75613281 23.21390625 -2.76226563 23.1778125 -1.73828125 23.140625 C-0.97902344 23.09421875 -0.21976563 23.0478125 0.5625 23 C0.2325 24.65 -0.0975 26.3 -0.4375 28 C-10.16855464 28.62334158 -10.16855464 28.62334158 -15 26.25 C-18.12694809 23.36358638 -19.26544535 21.43645624 -19.7734375 17.1953125 C-19.90838373 6.58853857 -19.90838373 6.58853857 -15.4375 2 C-10.50635475 -1.28743017 -5.60937783 -2.30128321 0 0 Z " fill="#757575" transform="translate(1112.4375,299)"/>
<path d="M0 0 C0.88945313 0.07863281 1.77890625 0.15726562 2.6953125 0.23828125 C3.77425781 0.46064453 3.77425781 0.46064453 4.875 0.6875 C5.205 1.3475 5.535 2.0075 5.875 2.6875 C5.545 3.3475 5.215 4.0075 4.875 4.6875 C4.21113281 4.62949219 3.54726563 4.57148438 2.86328125 4.51171875 C-1.65848124 4.28067979 -4.32536254 4.19172477 -8.25 6.625 C-10.73694102 10.68700367 -10.91656623 14.02975764 -10.125 18.6875 C-8.87575107 21.86192531 -8.87575107 21.86192531 -6.125 23.6875 C-4.25120395 23.75783769 -2.37498898 23.7718022 -0.5 23.75 C0.50289062 23.74097656 1.50578125 23.73195313 2.5390625 23.72265625 C3.69535156 23.70525391 3.69535156 23.70525391 4.875 23.6875 C4.875 25.0075 4.875 26.3275 4.875 27.6875 C1.18838558 29.53080721 -3.09220094 29.04370938 -7.125 28.6875 C-10.83421361 27.10911123 -13.2410182 25.26706543 -15.125 21.6875 C-16.45380799 16.03182964 -16.51126368 11.08253093 -14.125 5.6875 C-9.95530616 1.08892337 -6.1375137 -0.59943647 0 0 Z " fill="#757575" transform="translate(552.125,298.3125)"/>
<path d="M0 0 C1.35158203 0.15275391 1.35158203 0.15275391 2.73046875 0.30859375 C3.41753906 0.39238281 4.10460937 0.47617187 4.8125 0.5625 C4.8125 1.8825 4.8125 3.2025 4.8125 4.5625 C3.79929687 4.49289062 3.79929687 4.49289062 2.765625 4.421875 C-2.85884314 4.05434695 -2.85884314 4.05434695 -7.75 6.4375 C-10.44970901 10.42837419 -10.57158331 13.83171774 -10.1875 18.5625 C-9.17874788 21.37259519 -8.85354583 22.22947708 -6.1875 23.5625 C-4.31370395 23.63283769 -2.43748898 23.6468022 -0.5625 23.625 C0.44039062 23.61597656 1.44328125 23.60695313 2.4765625 23.59765625 C3.63285156 23.58025391 3.63285156 23.58025391 4.8125 23.5625 C4.4825 25.2125 4.1525 26.8625 3.8125 28.5625 C-8.24787996 29.13278066 -8.24787996 29.13278066 -12.1875 25.5625 C-14.8813418 21.79769182 -15.59779668 19.17459971 -15.5625 14.5625 C-15.57023438 13.551875 -15.57796875 12.54125 -15.5859375 11.5 C-15.01262697 7.27324 -13.37645999 4.60284 -10.1875 1.8125 C-6.58465956 -0.43927527 -4.10010813 -0.47923342 0 0 Z " fill="#757575" transform="translate(838.1875,298.4375)"/>
<path d="M0 0 C1.65 0 3.3 0 5 0 C5 7.92 5 15.84 5 24 C8.96 24 12.92 24 17 24 C17 25.32 17 26.64 17 28 C11.39 28 5.78 28 0 28 C0 18.76 0 9.52 0 0 Z " fill="#757575" transform="translate(1476,299)"/>
<path d="M0 0 C7.26 0 14.52 0 22 0 C22 0.99 22 1.98 22 3 C19.03 3 16.06 3 13 3 C13 11.25 13 19.5 13 28 C11.68 28 10.36 28 9 28 C9 19.75 9 11.5 9 3 C6.03 3 3.06 3 0 3 C0 2.01 0 1.02 0 0 Z " fill="#757575" transform="translate(739,299)"/>
<path d="M0 0 C0.99 0 1.98 0 3 0 C3 12.87 3 25.74 3 39 C2.01 39 1.02 39 0 39 C0 26.13 0 13.26 0 0 Z " fill="#757575" transform="translate(950,294)"/>
</svg>
